<mxfile host="app.diagrams.net" modified="2023-12-19T10:27:43.263Z" agent="Mozilla/5.0 (Windows NT 10.0; Win64; x64) AppleWebKit/537.36 (KHTML, like Gecko) Chrome/120.0.0.0 Safari/537.36" version="22.1.11" etag="4q-81Wa87IjY1-Jdg1o8" type="github">
  <diagram name="第 1 页" id="V14EhFcgrSWueC0OwyNH">
    <mxGraphModel>
      <root>
        <mxCell id="0" />
        <mxCell id="1" parent="0" />
      </root>
    </mxGraphModel>
  </diagram>
</mxfile>
